<mxfile host="app.diagrams.net" modified="2021-08-21T13:44:26.720Z" agent="5.0 (Macintosh; Intel Mac OS X 10_15_7) AppleWebKit/537.36 (KHTML, like Gecko) Chrome/92.0.4515.159 Safari/537.36" etag="mk5O12dYfhtKzHH0yUPm" version="14.9.8" type="github">
  <diagram id="WpJpMewNsIh6ZR-yofad" name="Page-1">
    <mxGraphModel dx="946" dy="534" grid="1" gridSize="10" guides="1" tooltips="1" connect="1" arrows="1" fold="1" page="1" pageScale="1" pageWidth="827" pageHeight="1169" math="0" shadow="0">
      <root>
        <mxCell id="0" />
        <mxCell id="1" parent="0" />
        <mxCell id="uIqASsfO4Dl5PbQsylgY-7" value="" style="edgeStyle=orthogonalEdgeStyle;rounded=0;orthogonalLoop=1;jettySize=auto;html=1;" edge="1" parent="1" source="uIqASsfO4Dl5PbQsylgY-1" target="uIqASsfO4Dl5PbQsylgY-6">
          <mxGeometry relative="1" as="geometry" />
        </mxCell>
        <mxCell id="uIqASsfO4Dl5PbQsylgY-1" value="基本上所有的动态规划都可以用递归的方式转换" style="whiteSpace=wrap;html=1;" vertex="1" parent="1">
          <mxGeometry x="60" y="120" width="310" height="60" as="geometry" />
        </mxCell>
        <mxCell id="uIqASsfO4Dl5PbQsylgY-2" value="发现递归存在大量重复计算了，可以用动态规划去做&lt;br&gt;" style="shape=callout;rounded=1;whiteSpace=wrap;html=1;perimeter=calloutPerimeter;" vertex="1" parent="1">
          <mxGeometry x="170" y="30" width="310" height="90" as="geometry" />
        </mxCell>
        <mxCell id="uIqASsfO4Dl5PbQsylgY-5" value="" style="edgeStyle=orthogonalEdgeStyle;rounded=0;orthogonalLoop=1;jettySize=auto;html=1;" edge="1" parent="1" source="uIqASsfO4Dl5PbQsylgY-3" target="uIqASsfO4Dl5PbQsylgY-4">
          <mxGeometry relative="1" as="geometry" />
        </mxCell>
        <mxCell id="uIqASsfO4Dl5PbQsylgY-3" value="大规模" style="ellipse;whiteSpace=wrap;html=1;" vertex="1" parent="1">
          <mxGeometry x="20" y="220" width="120" height="110" as="geometry" />
        </mxCell>
        <mxCell id="uIqASsfO4Dl5PbQsylgY-8" value="式子&lt;br&gt;" style="edgeStyle=orthogonalEdgeStyle;rounded=0;orthogonalLoop=1;jettySize=auto;html=1;" edge="1" parent="1" source="uIqASsfO4Dl5PbQsylgY-4" target="uIqASsfO4Dl5PbQsylgY-3">
          <mxGeometry relative="1" as="geometry" />
        </mxCell>
        <mxCell id="uIqASsfO4Dl5PbQsylgY-4" value="小规模&lt;br&gt;" style="ellipse;whiteSpace=wrap;html=1;" vertex="1" parent="1">
          <mxGeometry x="210" y="220" width="120" height="110" as="geometry" />
        </mxCell>
        <mxCell id="uIqASsfO4Dl5PbQsylgY-6" value="递归三部曲：&lt;br&gt;1.选择递归函数的参数&lt;br&gt;&lt;div style=&quot;text-align: left&quot;&gt;&lt;span&gt;2. 终止条件&lt;/span&gt;&lt;/div&gt;&lt;div style=&quot;text-align: left&quot;&gt;&lt;span&gt;3. 递归方向&lt;/span&gt;&lt;/div&gt;" style="whiteSpace=wrap;html=1;" vertex="1" parent="1">
          <mxGeometry x="410" y="120" width="150" height="60" as="geometry" />
        </mxCell>
        <mxCell id="uIqASsfO4Dl5PbQsylgY-9" value="f(index) = max(f(index - 1), f(index - 2) + nums[i])" style="whiteSpace=wrap;html=1;" vertex="1" parent="1">
          <mxGeometry x="360" y="245" width="290" height="60" as="geometry" />
        </mxCell>
        <mxCell id="uIqASsfO4Dl5PbQsylgY-11" value="&lt;div style=&quot;text-align: justify&quot;&gt;&lt;span&gt;1. basecase（初始化）&lt;/span&gt;&lt;br&gt;&lt;/div&gt;&lt;div style=&quot;text-align: justify&quot;&gt;2.状态转移方程式&lt;/div&gt;&lt;div style=&quot;text-align: justify&quot;&gt;3.缓存中间结果&lt;/div&gt;&lt;div style=&quot;text-align: justify&quot;&gt;4.注意顺序&lt;/div&gt;&lt;div style=&quot;text-align: justify&quot;&gt;&lt;br&gt;&lt;/div&gt;" style="shape=step;perimeter=stepPerimeter;whiteSpace=wrap;html=1;fixedSize=1;align=center;" vertex="1" parent="1">
          <mxGeometry x="30" y="350" width="190" height="80" as="geometry" />
        </mxCell>
        <mxCell id="uIqASsfO4Dl5PbQsylgY-12" value="转移方程式" style="shape=step;perimeter=stepPerimeter;whiteSpace=wrap;html=1;fixedSize=1;" vertex="1" parent="1">
          <mxGeometry x="570" y="290" width="120" height="30" as="geometry" />
        </mxCell>
        <mxCell id="uIqASsfO4Dl5PbQsylgY-13" value="以LeetCode的rob问题举例：&lt;br&gt;" style="text;html=1;align=center;verticalAlign=middle;resizable=0;points=[];autosize=1;strokeColor=none;" vertex="1" parent="1">
          <mxGeometry x="290" y="380" width="170" height="20" as="geometry" />
        </mxCell>
        <mxCell id="uIqASsfO4Dl5PbQsylgY-16" value="" style="edgeStyle=orthogonalEdgeStyle;rounded=0;orthogonalLoop=1;jettySize=auto;html=1;" edge="1" parent="1" source="uIqASsfO4Dl5PbQsylgY-14" target="uIqASsfO4Dl5PbQsylgY-15">
          <mxGeometry relative="1" as="geometry" />
        </mxCell>
        <mxCell id="uIqASsfO4Dl5PbQsylgY-14" value="1. index = 0: num[0]&lt;br&gt;2. index = 1: max(num[0], num[1])" style="whiteSpace=wrap;html=1;align=left;" vertex="1" parent="1">
          <mxGeometry x="470" y="380" width="210" height="60" as="geometry" />
        </mxCell>
        <mxCell id="uIqASsfO4Dl5PbQsylgY-18" value="" style="edgeStyle=orthogonalEdgeStyle;rounded=0;orthogonalLoop=1;jettySize=auto;html=1;" edge="1" parent="1" source="uIqASsfO4Dl5PbQsylgY-15" target="uIqASsfO4Dl5PbQsylgY-17">
          <mxGeometry relative="1" as="geometry" />
        </mxCell>
        <mxCell id="uIqASsfO4Dl5PbQsylgY-15" value="&lt;span style=&quot;text-align: center&quot;&gt;f(index) = max(f(index - 1), f(index - 2) + nums[i])&lt;/span&gt;" style="whiteSpace=wrap;html=1;align=left;" vertex="1" parent="1">
          <mxGeometry x="427.5" y="510" width="295" height="60" as="geometry" />
        </mxCell>
        <mxCell id="uIqASsfO4Dl5PbQsylgY-20" value="" style="edgeStyle=orthogonalEdgeStyle;rounded=0;orthogonalLoop=1;jettySize=auto;html=1;" edge="1" parent="1" source="uIqASsfO4Dl5PbQsylgY-17" target="uIqASsfO4Dl5PbQsylgY-19">
          <mxGeometry relative="1" as="geometry" />
        </mxCell>
        <mxCell id="uIqASsfO4Dl5PbQsylgY-17" value="&lt;div style=&quot;text-align: center&quot;&gt;缓存：int []dp = new int[nums.length]&lt;/div&gt;" style="whiteSpace=wrap;html=1;align=left;" vertex="1" parent="1">
          <mxGeometry x="427.5" y="650" width="295" height="60" as="geometry" />
        </mxCell>
        <mxCell id="uIqASsfO4Dl5PbQsylgY-19" value="顺序：&lt;br&gt;form 0 to n-1" style="whiteSpace=wrap;html=1;align=left;" vertex="1" parent="1">
          <mxGeometry x="140" y="650" width="120" height="60" as="geometry" />
        </mxCell>
      </root>
    </mxGraphModel>
  </diagram>
</mxfile>
